HIERARCHY
ROOT Hips
{
	OFFSET	0.00	0.00	0.00
	CHANNELS 6 Xposition Yposition Zposition Zrotation Xrotation Yrotation
	JOINT LeftUpLeg
	{
		OFFSET	 0.126116	-0.014019	-0.065224
		CHANNELS 3 Zrotation Xrotation Yrotation
		JOINT LeftLeg
		{
			OFFSET	 0.000000	 0.000000	 0.569914
			CHANNELS 3 Zrotation Xrotation Yrotation
			JOINT LeftFoot
			{
				OFFSET	 0.000000	 0.000000	 0.544423
				CHANNELS 3 Zrotation Xrotation Yrotation
				JOINT LeftToeBase
				{
					OFFSET	 0.000000	 0.000000	 0.207117
					CHANNELS 3 Zrotation Xrotation Yrotation
					End Site
					{
						OFFSET	 0.000000	 0.000000	 0.207117
					}
				}
			}
		}
	}
	JOINT RightUpLeg
	{
		OFFSET	-0.124023	-0.008373	-0.065224
		CHANNELS 3 Zrotation Xrotation Yrotation
		JOINT RightLeg
		{
			OFFSET	 0.000000	 0.000000	 0.570047
			CHANNELS 3 Zrotation Xrotation Yrotation
			JOINT RightFoot
			{
				OFFSET	 0.000000	 0.000000	 0.544354
				CHANNELS 3 Zrotation Xrotation Yrotation
				JOINT RightToeBase
				{
					OFFSET	 0.000000	 0.000000	 0.207540
					CHANNELS 3 Zrotation Xrotation Yrotation
					End Site
					{
						OFFSET	 0.000000	 0.000000	 0.207540
					}
				}
			}
		}
	}
	JOINT Spine
	{
		OFFSET	 0.000184	-0.007763	 0.117403
		CHANNELS 3 Zrotation Xrotation Yrotation
		JOINT Spine1
		{
			OFFSET	 0.000000	 0.000000	 0.137269
			CHANNELS 3 Zrotation Xrotation Yrotation
			JOINT Spine2
			{
				OFFSET	 0.000000	 0.000000	 0.156879
				CHANNELS 3 Zrotation Xrotation Yrotation
				JOINT LeftShoulder
				{
					OFFSET	 0.080501	-0.002496	 0.160144
					CHANNELS 3 Zrotation Xrotation Yrotation
					JOINT LeftArm
					{
						OFFSET	 0.000000	 0.000000	 0.164363
						CHANNELS 3 Zrotation Xrotation Yrotation
						JOINT LeftForeArm
						{
							OFFSET	 0.000000	 0.000000	 0.364576
							CHANNELS 3 Zrotation Xrotation Yrotation
							JOINT LeftHand
							{
								OFFSET	 0.000000	 0.000000	 0.360812
								CHANNELS 3 Zrotation Xrotation Yrotation
								JOINT LeftHandIndex1
								{
									OFFSET	 0.000000	 0.000000	 0.086006
									CHANNELS 3 Zrotation Xrotation Yrotation
									JOINT LeftHandIndex2
									{
										OFFSET	 0.000000	 0.000000	 0.047236
										CHANNELS 3 Zrotation Xrotation Yrotation
										JOINT LeftHandIndex3
										{
											OFFSET	-0.004284	-0.000551	 0.038166
											CHANNELS 3 Zrotation Xrotation Yrotation
											End Site
											{
												OFFSET	-0.004284	-0.000551	 0.038166
											}
										}
									}
								}
							}
						}
					}
				}
				JOINT Neck
				{
					OFFSET	 0.000000	 0.000000	 0.176489
					CHANNELS 3 Zrotation Xrotation Yrotation
					JOINT Head
					{
						OFFSET	 0.000000	-0.001747	 0.077940
						CHANNELS 3 Zrotation Xrotation Yrotation
						End Site
						{
							OFFSET	 0.000000	-0.001747	 0.077940
						}
					}
				}
				JOINT RightShoulder
				{
					OFFSET	-0.080363	 0.000306	 0.159706
					CHANNELS 3 Zrotation Xrotation Yrotation
					JOINT RightArm
					{
						OFFSET	 0.000000	 0.000000	 0.164196
						CHANNELS 3 Zrotation Xrotation Yrotation
						JOINT RightForeArm
						{
							OFFSET	 0.000000	 0.000000	 0.365611
							CHANNELS 3 Zrotation Xrotation Yrotation
							JOINT RightHand
							{
								OFFSET	 0.000000	 0.000000	 0.360648
								CHANNELS 3 Zrotation Xrotation Yrotation
								JOINT RightHandIndex1
								{
									OFFSET	 0.000000	 0.000000	 0.069977
									CHANNELS 3 Zrotation Xrotation Yrotation
									JOINT RightHandIndex2
									{
										OFFSET	 0.000000	 0.000000	 0.052305
										CHANNELS 3 Zrotation Xrotation Yrotation
										JOINT RightHandIndex3
										{
											OFFSET	 0.009002	-0.000782	 0.042196
											CHANNELS 3 Zrotation Xrotation Yrotation
											End Site
											{
												OFFSET	 0.009002	-0.000782	 0.042196
											}
										}
									}
								}
							}
						}
					}
				}
			}
		}
	}
}
MOTION
Frames:    9
Frame Time: 0.03333334
 0.000365	 0.075896	 1.273624	 0.155402	 0.416765	 0.139886	 4.120881	-1.741005	 179.845800	 3.148374	-11.594570	 1.749879	 4.354856	 71.406410	 1.230548	-2.385833	 28.452760	 0.000004	-4.121233	-2.153045	-179.879800	-3.140193	-11.964010	-1.790653	-4.386740	 71.428390	-1.219508	 2.384659	 28.388700	-0.000001	 7.103216	 2.964110	 0.140729	 11.836530	-1.296834	 0.919214	 14.206920	-1.531873	 1.134142	-96.855680	 86.735770	-170.910800	 12.090980	 1.915943	-6.709803	-4.245833	-0.921657	-0.250962	-17.628950	-18.256310	-4.554494	-2.482367	 5.116409	 7.306710	-5.213516	-0.193813	 3.566525	-1.378229	 35.397820	-2.634230	-0.000002	-3.783157	-0.089647	 3.526700	 0.823448	-0.025351	 104.097500	 88.275240	 160.879200	-12.297030	 2.928372	 8.184141	 4.452783	-0.477575	 0.392391	 18.705830	-19.263990	 9.134016	 3.315085	 2.709412	-9.595269	 5.070815	-0.697434	-9.399699	-2.350882	 35.473990	 5.254307
-0.002578	 0.090695	 1.275409	-2.344383	 9.368039	 3.078549	 5.571499	-20.527590	 175.422700	-4.307965	-36.391740	-1.057733	-1.215454	 83.545850	-0.531169	-2.331879	 36.663050	-0.189541	-1.910655	-22.464310	-178.944100	-2.013285	-40.314030	-0.920278	-1.527330	 86.828060	 0.786608	 2.393851	 26.019450	-0.050481	 7.606776	 4.532033	-1.619176	 12.796030	 3.103197	-1.973901	 15.005890	 1.305335	 0.826653	-101.452400	 88.594300	-167.649200	 54.363190	 68.148280	-64.220840	-4.829269	-4.300105	-17.575580	 6.197674	-20.195300	-5.650174	-2.105947	-11.264730	 6.915798	-5.213516	-0.193813	 3.566525	-1.378229	 35.397820	-2.634230	 0.738082	 1.366139	 0.652384	 4.122734	 2.370090	 0.026630	 96.628860	 87.903240	 170.217600	-51.064740	 75.714710	 64.416710	-2.185241	-12.749070	 23.200510	-22.784150	-20.943240	 10.232020	-7.411374	-4.227189	-37.053180	 5.070815	-0.697434	-9.399699	-2.350882	 35.473990	 5.254307
-0.003228	 0.089371	 1.275062	-2.306075	 9.225839	 3.037385	 5.517795	-20.378630	 175.403400	-4.326761	-36.459600	-1.104826	-1.245007	 83.609690	-0.563750	-2.330311	 36.836970	-0.193869	-1.819197	-22.133580	-178.960700	-1.978744	-39.937840	-0.848532	-1.521511	 86.602930	 0.853741	 2.394555	 25.805580	-0.054964	 7.573908	 4.531712	-1.612249	 12.785720	 3.152085	-1.981823	 15.039180	 1.332234	 0.824967	-101.298400	 88.601010	-167.860100	 53.973890	 68.257960	-63.739300	-4.784590	-4.280437	-17.250340	 6.325672	-20.224220	-5.646976	-2.545470	-11.462100	 5.879085	-5.213516	-0.193813	 3.566525	-1.378229	 35.397820	-2.634230	 0.763621	 1.428462	 0.682407	 4.174434	 2.486966	 0.060008	 96.697120	 87.919070	 170.147200	-51.529920	 75.666310	 64.814920	-2.319724	-12.724450	 23.130830	-22.798250	-20.963840	 10.232600	-7.382066	-4.246104	-36.963750	 5.070815	-0.697434	-9.399699	-2.350882	 35.473990	 5.254307
-0.004335	 0.087369	 1.274740	-2.173436	 9.077216	 2.969989	 5.447490	-20.203110	 175.383700	-4.311259	-36.498370	-1.139348	-1.291803	 83.695880	-0.564691	-2.328479	 37.036850	-0.198869	-1.737684	-21.528050	-178.984100	-1.856465	-39.210880	-0.731379	-1.448764	 86.435470	 0.916146	 2.395326	 25.564100	-0.060018	 7.497398	 4.454513	-1.589258	 12.738480	 3.214953	-1.988192	 15.065030	 1.382242	 0.819807	-101.047800	 88.610970	-168.199400	 53.542400	 68.425220	-63.199060	-4.739073	-4.260358	-16.849230	 6.503718	-20.269650	-5.641986	-3.171835	-11.692820	 4.414212	-5.213516	-0.193813	 3.566525	-1.378229	 35.397820	-2.634230	 0.770348	 1.518996	 0.729029	 4.239484	 2.677962	 0.043231	 96.811910	 87.944340	 170.027700	-52.007760	 75.645160	 65.151150	-2.464669	-12.696620	 23.053570	-22.810990	-20.996750	 10.233990	-7.337747	-4.245005	-36.850990	 5.070815	-0.697434	-9.399699	-2.350882	 35.473990	 5.254307
-0.005592	 0.085176	 1.274533	-1.988405	 8.973466	 2.889675	 5.370814	-20.038570	 175.368300	-4.258255	-36.494150	-1.152183	-1.324785	 83.766490	-0.553005	-2.326745	 37.223620	-0.203554	-1.721395	-20.817950	-178.977900	-1.651580	-38.349250	-0.602872	-1.331461	 86.413290	 0.965364	 2.394290	 25.884940	-0.053301	 7.400382	 4.321777	-1.556432	 12.667870	 3.269345	-1.987914	 15.074040	 1.436720	 0.813114	-100.737200	 88.615770	-168.603100	 53.227520	 68.576080	-62.788330	-4.675767	-4.243033	-16.476670	 6.680243	-20.320210	-5.637906	-3.497617	-11.839020	 3.656286	-5.213516	-0.193813	 3.566525	-1.378229	 35.397820	-2.634230	 0.758440	 1.612499	 0.787289	 4.296855	 2.891636	-0.032986	 96.962040	 87.976580	 169.872400	-52.360170	 75.658810	 65.311900	-2.585511	-12.671110	 22.985930	-22.817740	-21.036320	 10.236150	-7.289588	-4.222628	-36.744320	 5.070815	-0.697434	-9.399699	-2.350882	 35.473990	 5.254307
-0.007216	 0.082657	 1.274420	-1.750833	 8.905421	 2.797014	 5.269773	-19.856870	 175.355200	-4.174707	-36.444510	-1.157543	-1.364337	 83.806280	-0.526865	-2.324925	 37.416590	-0.208428	-1.828348	-19.994820	-179.010900	-1.314965	-37.327900	-0.472146	-1.378504	 86.526840	 1.207093	 2.391788	 26.613570	-0.037962	 7.287055	 4.145660	-1.526862	 12.580080	 3.318888	-1.977365	 15.072480	 1.500896	 0.804560	-100.311500	 88.607320	-169.127200	 52.922400	 68.783880	-62.410520	-4.665653	-4.224754	-16.095800	 6.865718	-20.383100	-5.634937	-3.399083	-11.903940	 3.883389	-5.213516	-0.193813	 3.566525	-1.378229	 35.397820	-2.634230	 0.736086	 1.715522	 0.865335	 4.354344	 3.145797	-0.146916	 97.190440	 88.025340	 169.639000	-52.638720	 75.703150	 65.331040	-2.700565	-12.642660	 22.916300	-22.817820	-21.089760	 10.239550	-7.233035	-4.176578	-36.633750	 5.070815	-0.697434	-9.399699	-2.350882	 35.473990	 5.254307
-0.008909	 0.080572	 1.274401	-1.536565	 8.872250	 2.754816	 5.152647	-19.681100	 175.312800	-4.089954	-36.351520	-1.170129	-1.397614	 83.778620	-0.517994	-2.323385	 37.579030	-0.212524	-1.934256	-19.408890	-179.117200	-1.125313	-36.396130	-0.439419	-1.406220	 86.491670	 1.296954	 2.390488	 26.964110	-0.030530	 7.195293	 3.971840	-1.565370	 12.512910	 3.361723	-1.968169	 15.067830	 1.570364	 0.795144	-99.826480	 88.576460	-169.688200	 52.712110	 69.022480	-62.234680	-4.709572	-4.221608	-15.776600	 7.068829	-20.454540	-5.632521	-3.318954	-11.948370	 4.067854	-5.213516	-0.193813	 3.566525	-1.378229	 35.397820	-2.634230	 0.726806	 1.806281	 0.949100	 4.395176	 3.394313	-0.216513	 97.493070	 88.089610	 169.335400	-52.888630	 75.752430	 65.338470	-2.793760	-12.613510	 22.852680	-22.808830	-21.152140	 10.243830	-7.178392	-4.113051	-36.540950	 5.070815	-0.697434	-9.399699	-2.350882	 35.473990	 5.254307
-0.010482	 0.079052	 1.274468	-1.427690	 8.854142	 2.829631	 5.045613	-19.529140	 175.163600	-4.047621	-36.229330	-1.207135	-1.431342	 83.696960	-0.543323	-2.322376	 37.683450	-0.215187	-2.086712	-19.039900	-179.337900	-1.021643	-35.726450	-0.487169	-1.456647	 86.474580	 1.294621	 2.391940	 26.568260	-0.038916	 7.149615	 3.837852	-1.726148	 12.492300	 3.384094	-1.982296	 15.064870	 1.622568	 0.788099	-99.351370	 88.521840	-170.201500	 52.605270	 69.268970	-62.261860	-4.790638	-4.238541	-15.551880	 7.282677	-20.527860	-5.630250	-3.257401	-11.969790	 4.209635	-5.213516	-0.193813	 3.566525	-1.378229	 35.397820	-2.634230	 0.742654	 1.880353	 1.025972	 4.412055	 3.567829	-0.212707	 97.843330	 88.165490	 168.997200	-53.100650	 75.792900	 65.358220	-2.861614	-12.584850	 22.797780	-22.791530	-21.217920	 10.248380	-7.132662	-4.041946	-36.476560	 5.070815	-0.697434	-9.399699	-2.350882	 35.473990	 5.254307
-0.012026	 0.077645	 1.274598	-1.451434	 8.847308	 3.023493	 4.962962	-19.384720	 174.893600	-4.055043	-36.066420	-1.265524	-1.462865	 83.583660	-0.604587	-2.322206	 37.700220	-0.215615	-2.240289	-18.727750	-179.591100	-1.126608	-35.244040	-0.654424	-1.666222	 86.376300	 1.271544	 2.394818	 25.723820	-0.056679	 7.154114	 3.704202	-1.988981	 12.522440	 3.380551	-2.029736	 15.066270	 1.656402	 0.783712	-98.890300	 88.437150	-170.659000	 52.476860	 69.586880	-62.291170	-4.977657	-4.265303	-15.411410	 7.473563	-20.610750	-5.628947	-3.251914	-11.997460	 4.221709	-5.213516	-0.193813	 3.566525	-1.378229	 35.397820	-2.634230	 0.791782	 1.990861	 1.097885	 4.406771	 3.647641	-0.159577	 98.269060	 88.258420	 168.601200	-53.234800	 75.832040	 65.309640	-2.917520	-12.553310	 22.742440	-22.766490	-21.295510	 10.253520	-7.092226	-3.958253	-36.435150	 5.070815	-0.697434	-9.399699	-2.350882	 35.473990	 5.254307
